# xmcd CD database file
#
# Track frame offsets:
#	150
#	16976
#	32693
#	41015
#	48928
#	66859
#	80391
#	102606
#	115697
#	125123
#	139845
#	154233
#	168135
#
# Disc length: 2388 seconds
#
# Revision: 0
# Processed by: cddbd v1.5.2PL0 Copyright (c) Steve Scherf et al.
# Submitted via: CDex 1.94
#
DISCID=ab09520d
DTITLE=Trevor Gollagher - So What
DYEAR=2017
DGENRE=Ukulele
TTITLE0=Say What
TTITLE1=BR Blues
TTITLE2=In The Taropatch
TTITLE3=Carlton St
TTITLE4=Little Faces
TTITLE5=Road To Lismore
TTITLE6=Play My Music
TTITLE7=Paddlers Dream
TTITLE8=Puzzles
TTITLE9=Kenilworth
TTITLE10=You Say
TTITLE11=You'll Never Know
TTITLE12=Just In Time
EXTD=YEAR: 2017
EXTT0=
EXTT1=
EXTT2=
EXTT3=
EXTT4=
EXTT5=
EXTT6=
EXTT7=
EXTT8=
EXTT9=
EXTT10=
EXTT11=
EXTT12=
PLAYORDER=
